<?xml version="1.0" encoding="UTF-8"?>
<svg id="Layer_1" xmlns="http://www.w3.org/2000/svg" version="1.1" viewBox="0 0 1485.99 235.47">
  <!-- Generator: Adobe Illustrator 30.5.1, SVG Export Plug-In . SVG Version: 2.1.4 Build 3)  -->
  <defs>
    <style>
      .st0 {
        fill: #207a35;
      }

      .st1 {
        fill: #fffffe;
      }

      .st2 {
        fill: #fff;
      }

      .st3 {
        fill: #000201;
      }

      .st4 {
        fill: #fffefe;
      }

      .st5 {
        fill: #000100;
      }

      .st6 {
        fill: #fefefe;
      }

      .st7 {
        fill: #f36822;
      }

      .st8 {
        fill: #e5986d;
      }
    </style>
  </defs>
  <path class="st3" d="M760.83,193.92c-6.16.92-11.73.47-17.42.22l-.33-117.43-40.85.03-.17-14.92,100.07-.05.02,14.98-41.27-.1-.04,117.27Z"/>
  <g>
    <path class="st7" d="M18.99,101.76c1.45-.84,1.73-.38.85,1.38l-5.06,11.87c-2.54,5.95-3.35,13.45-.5,19.53,2.74,5.87,9.22,8.9,15.65,10.31,24.79,5.42,49.83-1.2,69.67-16.3,9.15-6.96,17.2-14.14,22.71-24.03,4.08-7.32,4.31-16.02-1.95-22.05-16.1-15.52-45.77-6.37-63.77,8.11-8.74,7.03-18.2,21.53-13.41,30.09,4.16,7.44,13.95,9.03,21.53,6.1,6.3-2.43,9.37-7.99,8.4-14.5-.81-5.41-3.62-9.53-7.3-14.3,13.39-8.2,35.76-12.74,38.07-.63,4.41,23.14-39.86,49.09-72.8,36.08-7.22-2.85-11.61-8.66-11.38-16.57.22-7.41,3.15-14.46,8.31-20.24,15.68-17.56,38.55-27.75,62.38-28.73,16.62-.68,30.37,3.65,43.38,12.85,24.27,17.17,38.23,43.98,35.84,73.11-3.84,46.66-45.81,81.46-94.08,76.19C35.93,225.73,4.51,194.88.43,156.58c-2.22-20.79,4.27-39.84,18.56-54.82Z"/>
    <g>
      <path class="st0" d="M118.53,29.54c-12.05,6.95-31.74,16.23-39.48,9.78-1.88-1.57-3.11-4.8-2.73-7.88,1.57-12.84,12.54-22.88,25.82-24.62l28.21-.72c12.45-.32,23.84-2.8,36.05-6.11-4.68,27.74-27.93,58.78-55.59,63.15-9.18,1.45-18.21-1.75-23.85-9.07,12.72-6.38,23.45-14.28,31.58-24.54Z"/>
      <path class="st0" d="M72.17,44.38c-6.25,2.47-12.73,3.09-19.31,2.81-23.24-1.99-30.17-21.39-32.09-43.22,12.72,9.76,28.22,13.99,41.29,22.22,6.39,4.03,10.51,9.84,10.11,18.19Z"/>
    </g>
  </g>
  <path class="st8" d="M19.84,103.14c-.25-.52-.58-.86-.85-1.38,1.18-1.24,1.8-2.9,3.68-3.62.31,2.44-2.17,3.46-2.83,5Z"/>
  <g>
    <path class="st5" d="M463.97,121.21c-3.89,5.29-5.73,11.2-5.76,17.42l-.27,55.55-17.56.08-.06-71.61-1-23.12,15.94-.18,1.02,16.07c6.27-11.48,17.41-17.85,30.82-18.3,22.33-.74,35.71,15.64,35.76,37.71l.12,59.34-17.94.16-.35-60.44c-.04-6.91-2.85-14.06-8.48-18.19-10.1-7.41-24.77-4.64-32.24,5.51Z"/>
    <g>
      <path d="M268.26,191.84c-15.59,5.9-32.06,6.11-47.33.72-12.87-4.55-22.5-13.89-29.01-25.4-15.82-27.97-12.33-70,12.84-92.65,22.66-20.39,63.43-20.3,84.09,3.43,10.2,11.72,15.63,25.57,16.89,40.88,2.37,29.04-8.46,62.04-37.48,73.02Z"/>
      <path class="st4" d="M286.9,122.22c1.86,27.85-10.28,58.01-39.36,60.06-13.62.96-26.34-4.95-34.46-15.92-8.44-11.39-11.52-24.95-11.43-39.05.16-26.15,13.75-53.06,42.12-53.44,27.25-.37,41.48,23.57,43.13,48.35Z"/>
    </g>
    <g>
      <path d="M537.16,228.19l4.3-13.73c11.37,6.17,23.74,8.43,36.45,6.39,20.46-3.29,24.91-22.28,22.46-42.48-6.09,9.68-15.63,14.64-26.92,15.53-15.03,1.19-28.32-5.06-36.52-17.24-6.88-10.22-9.14-22.01-8.28-34.36,1.77-25.36,19.27-46,45.79-45.14,11.8.38,21.59,5.73,27.75,15.73l1.29-13.7,15.76.25-.78,28.85-.24,59.08c-.09,21.43-8.89,40.15-30.64,45.77-16.68,4.31-34.1,2.65-50.4-4.94Z"/>
      <path class="st4" d="M583.18,179.27c-11.92,3.36-24.42-.14-30.58-10.2-8.3-13.56-8.52-31.05-.78-44.63,6.06-10.64,17.28-15.54,29.35-12.86,10.53,2.34,19.2,11.74,19.14,23.38l-.11,22.18c-.05,9.79-6.74,19.24-17.01,22.14Z"/>
    </g>
    <g>
      <path d="M666.97,181.83c12.05,2.06,23.43.6,34.43-3.94l3.12,12.83c-13.84,5.55-28.96,6.89-43.93,4.39s-27.92-12.69-32.97-27.41c-5.35-15.58-4.01-32.81,3.32-47.45,7.78-15.53,22.96-23.54,40.41-23.15,15.82.35,29.14,8.3,34.79,22.9,3.68,9.52,4.9,19.79,3.33,30.01l-67.82.15c-.43,16.09,9.18,28.89,25.33,31.66Z"/>
      <path class="st6" d="M692.92,137.4h-51.04c.9-7.37,3.37-15.02,9.03-20.55,8.66-8.47,22.82-9.07,32.77-2.57,6.89,5.7,9.58,13.67,9.25,23.12Z"/>
    </g>
    <g>
      <path d="M329.48,194l-18.1.23-.02-73.44-1.05-21.24,16-.19,1.09,18.02c5.06-13.2,16.88-22.64,31.85-19.93l-.14,16.83c-6.45-1.17-13.01-.99-18.14,2.94-7.65,5.85-11.36,14.86-11.48,24.27l-.02,52.51Z"/>
      <g>
        <path d="M412.38,182.33c-10.23,16.07-38.32,19.08-51.42,6.07-7.27-7.22-9.51-17.17-7.03-27.68,5.11-21.61,35.19-27.51,57.47-27.03.38-6.19-.82-12.54-5.1-17.37-8.68-9.8-29.67-7.1-42.12.93l-3.62-11.91c16.7-10.42,45.59-12.44,59.18,1.79,5.89,6.16,8.88,14.45,8.95,23.05l.38,49.7,1.26,14.37-15.46.12-2.52-12.05Z"/>
        <path class="st4" d="M383.52,183.15c-7.43-1.4-11.29-6.89-12.21-13.15-1.41-9.64,3.98-17.64,13.47-20.84,8.55-2.89,17.4-3.55,26.74-3.22l-.29,18.97c-1.7,12.35-14.91,20.67-27.71,18.25Z"/>
      </g>
    </g>
  </g>
  <g>
    <path d="M1133.27,138.7l-27.56-.12.03-14.09,43.93.19.33,63.8c-19.71,7.48-41.25,9.42-62.25,5.06s-37.58-19.07-44.13-39.12c-11.08-35.5,1.6-76.12,39.18-88.88,20.4-6.93,42.39-6.79,62.78.65l-3.71,14.5c-32.74-12.74-70.86-4.7-80.7,28.86-8.66,29.53,2.45,63.64,34.91,70.27,12.4,2.53,24.9,2.1,37.14-1.71l.05-39.43Z"/>
    <rect x="1161.19" y="55.19" width="17.74" height="139.22"/>
    <rect x="1468.37" y="55.04" width="17.63" height="139.33"/>
    <g>
      <path d="M1364.49,185.97c-17.15,15.53-47.95,14.25-60.13-6.91l-1.72,15.19-15.32.03,1.29-25.76-.1-113.07,17.17-.25.42,59.03c7.62-11.54,18.31-16.57,31.3-17.06,14.92-.57,27.82,5.91,35.19,18.77,6.75,11.09,8,23.98,6.93,36.93s-5.13,24.11-15.05,33.1Z"/>
      <path class="st6" d="M1359.56,163.2c-4.12,12.93-15.32,20.22-28.34,19.31s-22.7-9.77-24.62-22.65c-2.53-16.92-1.32-37.74,14.57-45.49,8.7-4.25,18.41-4.22,26.29.34,14.66,8.48,17.32,32.14,12.11,48.49Z"/>
    </g>
    <g>
      <path d="M1246.29,194.88c-11.96,2.78-24.19,1.88-35.26-3.39-23.35-11.12-29.06-42.84-20.05-65.92,7.23-18.52,24.62-28.69,44.65-28.33,19.37.35,35.92,10.85,41.95,28.95,9.15,27.46-.27,61.47-31.29,68.69Z"/>
      <path class="st1" d="M1234.17,183.24c-11.9,0-21.18-7.44-25.69-17.55-5.75-12.89-4.91-27.92,1.6-40.49,7.41-14.31,25.75-19.27,39.22-10.16,14.35,9.7,17.16,35.71,9.16,52.18-4.46,9.18-13.35,16.02-24.28,16.02Z"/>
    </g>
    <g>
      <path d="M818.76,193.94l-17.41.39-.18-79.15-.94-15.77,15.87-.05,1.01,18c5.42-12.89,16.69-22.37,31.64-19.83l-.15,16.7c-5.83-.96-11.97-1.17-16.85,2.23-8.68,6.03-12.76,15.62-12.8,25.92l-.2,51.58Z"/>
      <g>
        <path d="M928.33,139.06l1.87,1.65c-1.1,7.61.03,14.25,3.19,21.13-.05,5.15,3.91,8.16,9.14,7.28,6.96,9.73,2.48-.79-.4-4.58-.74-3.5-1.87-10.97,1.74-12.57.6-.01.78.53.82,1.63.4,12.07,7.51,23.32,19.68,26.99,13.06,3.94,26.79,2.38,39.38-2.62l3.47,12.68c-13.76,5.44-28.65,6.81-43.3,4.67-25.69-3.74-37.67-26.08-36.78-49.5-1.06,1.39-.82,3.57-1.69,4.24l-66.03.04c-.07,6.69,1.32,13.41,5.09,19.31,10.29,16.09,35.7,15.83,54.09,8.58l3.21,12.6c-14.69,5.91-30.8,7.32-46.42,3.98-13.47-2.88-23.66-11.47-28.86-23.89-7.49-17.87-5.74-38.54,4.74-54.9,8.22-12.85,22.04-18.9,37.24-18.66,24.44.38,37.36,17.59,38.54,40.58.05.98.72,1.63,1.3,1.36Z"/>
        <path class="st6" d="M910.08,137.39l-50.68.08c1.17-8.62,4.15-17.07,11.51-22.62,8.06-6.08,20.27-6.81,28.79-1.26s10.95,14.84,10.37,23.81Z"/>
      </g>
      <g>
        <path d="M943.87,151.97l-.53,8.99c-.2,3.31,2.12,4.37,3.14,6.95l2.23,5.68c.25,1.26-2.95,2.28-4.55.82-.88-.81-1.42-2.24-2.29-3.82-5.48,1.75-6.01-1.51-10.23-3.95.71-2.03-.06-4.27-.64-5.79l-1.92-5.01c-1.91-4.99-.94-11.1-.76-16.77.36-10.9,5.53-21.07,13.01-29.17,8.76-9.49,21.38-13.35,34.45-12.61,27.89,1.57,39.35,26.59,35.95,52.75l-65.89.06c-1.42,0-1.91.77-1.98,1.88Z"/>
        <path class="st6" d="M995.13,137.44h-50.42c.56-5.76,2.33-11.08,5.56-16.16,7.68-12.05,24.76-15.01,36.34-6.46,6,6,8.68,13.38,8.52,22.61Z"/>
      </g>
    </g>
    <g>
      <path d="M1384.35,184.59c-6.39-9.8-6-22.8.16-32.24,9.82-15.04,34.06-18.79,52.85-18.54.74-6.11-.48-12.42-4.54-17.23-8.32-9.87-29.59-7.23-41.87.64l-3.87-12.14c12.58-7.13,27.29-9.36,41.48-6.93,15.65,2.68,26.06,14.83,26.19,30.19l.43,49.56,1.47,16.3-15.8.15-2.01-11.96c-6.06,8.53-15,12.78-25.57,13.88s-22.49-1.79-28.93-11.67Z"/>
      <path class="st2" d="M1408.78,182.87c-7.37-1.9-10.9-7.74-11.28-14.21-1.13-19.29,20.55-23.25,40.01-22.59l-.22,18.9c-1.74,12.75-15.56,21.25-28.52,17.9Z"/>
    </g>
  </g>
</svg>