<svg xmlns="http://www.w3.org/2000/svg" width="6222" height="1007" viewBox="99 109 6222 1007"><title>OrangeTree Global (white)</title><g fill-rule="evenodd"><path fill="#FFFFFF" d="M791 110.5L758 121.5L708 131.5L660 136.5L518 141.5L496 147.5L476 157.5L461 168.5L443.5 186L431.5 203L422.5 221L417.5 239L417.5 259L419.5 266L429 279.5L440 285.5L452 288.5L472 288.5L496 283.5L525 273.5L567 253.5L594 237.5L591.5 243L580.5 255L534 297.5L494 325.5L463.5 343L482 362.5L491 368.5L507 376.5L524 381.5L564 381.5L585 376.5L606 368.5L637 351.5L668 328.5L705.5 292L727.5 265L754.5 223L772.5 186L788.5 137L792.5 115L792.5 111L791 110.5ZM184 123.5L189.5 142L190.5 160L195.5 190L208.5 231L227.5 264L250 287.5L279 304.5L297 310.5L315 313.5L357 312.5L399.5 302L399.5 281L393.5 261L385.5 248L370 231.5L339 210.5L227 157.5L199 138.5L184 123.5Z"></path><path fill="#FFFFFF" d="M472 400.5L417 407.5L362 423.5L327 438.5L303 451.5L275 469.5L253 486.5L218.5 521L202.5 543L192.5 561L185.5 580L181.5 599L181.5 617L184.5 632L198.5 659L216 672.5L251 687.5L289 694.5L327 694.5L375 686.5L411 674.5L452 653.5L477 635.5L501.5 612L517.5 591L529.5 567L534.5 547L533.5 527L527.5 514L518 504.5L507 498.5L485 494.5L449 498.5L416 508.5L373.5 528L389.5 551L399.5 570L404.5 585L406.5 603L403.5 618L396.5 631L386 641.5L365 652.5L344 656.5L325 655.5L307 650.5L292 641.5L283.5 633L275.5 617L273.5 601L276.5 583L288.5 555L311.5 522L340 493.5L373 469.5L403 453.5L444 438.5L484 430.5L520 429.5L556 435.5L570 440.5L588 450.5L603.5 464L612.5 476L619.5 490L623.5 504L622.5 524L619.5 535L603.5 568L580.5 599L543 636.5L503 667.5L462 692.5L424 710.5L377 726.5L342 733.5L321 735.5L263 734.5L217 726.5L200 720.5L185 712.5L165.5 695L155.5 677L151.5 658L152.5 633L156.5 614L170.5 576L194.5 531L193 530.5L174.5 549L154.5 574L139.5 597L123.5 628L107.5 676L100.5 722L100.5 763L104.5 797L109.5 822L120.5 859L146.5 915L164.5 943L186.5 971L212 997.5L234 1016.5L270 1041.5L299 1057.5L329 1070.5L360 1080.5L391 1087.5L430 1092.5L477 1092.5L503 1089.5L531 1084.5L564 1075.5L595 1063.5L634 1043.5L668 1020.5L693 999.5L721.5 970L740.5 946L760.5 915L773.5 890L785.5 862L798.5 818L803.5 791L807.5 751L807.5 720L803.5 685L797.5 656L789.5 630L775.5 595L762.5 570L743.5 541L716.5 508L695 486.5L665 461.5L637 442.5L604 424.5L566 410.5L542 404.5L511 400.5L472 400.5Z"></path><path fill="#FFFFFF" d="M4967 345.5L4966.5 938L5040 938.5L5040.5 346L4967 345.5ZM5496 345.5L5495.5 856L5491.5 938L5555 938.5L5559 871.5L5562.5 874L5579.5 899L5595 914.5L5620 931.5L5642 940.5L5677 947.5L5713 947.5L5736 943.5L5763 934.5L5779 926.5L5800 912.5L5827.5 886L5847.5 857L5858.5 834L5866.5 811L5875.5 765L5876.5 708L5871.5 672L5865.5 649L5856.5 625L5845.5 604L5831.5 584L5806 558.5L5792 548.5L5771 537.5L5751 530.5L5725 525.5L5705 524.5L5679 526.5L5659 530.5L5636 538.5L5619 547.5L5601 560.5L5580.5 582L5569 599.5L5568.5 346L5496 345.5ZM6245 345.5L6244.5 938L6318 938.5L6318.5 346L6245 345.5ZM1104 366.5L1072 370.5L1051 375.5L1022 385.5L999 396.5L961 422.5L924.5 460L906.5 486L891.5 514L873.5 564L863.5 617L861.5 642L861.5 681L864.5 714L870.5 747L885.5 794L900.5 825L916.5 850L949 886.5L974 906.5L990 916.5L1014 928.5L1042 938.5L1063 943.5L1092 947.5L1136 947.5L1184 939.5L1209 931.5L1238 918.5L1279 890.5L1299.5 871L1315.5 852L1334.5 823L1346.5 799L1362.5 753L1372.5 699L1374.5 673L1374.5 631L1367.5 575L1360.5 547L1348.5 514L1339.5 495L1322.5 467L1309.5 450L1288 427.5L1270 412.5L1247 397.5L1225 386.5L1201 377.5L1152 367.5L1104 366.5ZM4750 369.5L4714 372.5L4680 378.5L4632 393.5L4587 416.5L4567 430.5L4546 448.5L4527.5 468L4513.5 486L4496.5 513L4484.5 538L4468.5 588L4463.5 616L4460.5 656L4463.5 707L4469.5 741L4475.5 763L4484.5 788L4498.5 817L4509.5 835L4525.5 856L4549 879.5L4564 891.5L4585 905.5L4610 918.5L4639 929.5L4665 936.5L4694 941.5L4727 944.5L4771 944.5L4827 938.5L4882 926.5L4921.5 913L4921.5 643L4736.5 643L4737 701.5L4850.5 702L4850.5 869L4827 877.5L4784 883.5L4731 883.5L4707 880.5L4678 873.5L4659 866.5L4637 855.5L4620 844.5L4601 828.5L4583.5 809L4570.5 790L4554.5 757L4542.5 714L4538.5 683L4537.5 656L4539.5 622L4545.5 588L4552.5 565L4564.5 538L4579.5 514L4592.5 498L4612 479.5L4638 461.5L4662 449.5L4681 442.5L4709 435.5L4740 431.5L4790 431.5L4817 434.5L4854 442.5L4887.5 455L4903.5 402L4904.5 396L4903 394.5L4873 383.5L4832 374.5L4798 370.5L4750 369.5ZM3047 375.5L3047 437.5L3217.5 438L3217.5 938L3290 938.5L3290.5 438L3462 437.5L3462.5 377L3461 375.5L3047 375.5ZM1101 426.5L1082 429.5L1061 435.5L1031 450.5L1002.5 474L978.5 505L959.5 543L947.5 582L940.5 626L939.5 680L946.5 730L956.5 764L972.5 799L995.5 832L1024 858.5L1049 873.5L1073 882.5L1091 886.5L1125 888.5L1160 883.5L1181 876.5L1199 867.5L1224 849.5L1239.5 834L1253.5 816L1273.5 780L1288.5 736L1296.5 688L1297.5 637L1293.5 601L1280.5 551L1263.5 514L1239.5 480L1210 453.5L1176 435.5L1155 429.5L1136 426.5L1101 426.5ZM1580 524.5L1562 526.5L1544 531.5L1529 538.5L1513 549.5L1500.5 561L1487.5 577L1476.5 596L1470 613.5L1466.5 613L1464.5 535L1399.5 535L1403.5 626L1404 938.5L1476.5 938L1476.5 706L1481.5 677L1487.5 659L1501.5 634L1514 619.5L1528 608.5L1546 599.5L1562 595.5L1586 594.5L1602.5 597L1602.5 528L1580 524.5ZM1740 524.5L1710 526.5L1670 534.5L1641 544.5L1612 559.5L1610.5 562L1626.5 609L1661 592.5L1703 581.5L1741 579.5L1762 582.5L1775 586.5L1793 596.5L1805.5 609L1811.5 618L1817.5 631L1821.5 646L1823.5 681L1762 683.5L1714 691.5L1668 706.5L1648 716.5L1629 729.5L1612.5 745L1601.5 759L1593.5 773L1586.5 791L1581.5 817L1581.5 845L1588.5 874L1601.5 899L1625 923.5L1649 937.5L1675 945.5L1688 947.5L1721 947.5L1740 944.5L1763 937.5L1784 927.5L1803 914.5L1817.5 901L1828 887.5L1830.5 888L1836 938.5L1902 938.5L1896.5 879L1896.5 679L1892.5 642L1882.5 607L1869.5 582L1859.5 569L1843 553.5L1826 542.5L1790 529.5L1765 525.5L1740 524.5ZM2150 524.5L2112 529.5L2076 543.5L2048 563.5L2028.5 585L2019 600.5L2017.5 600L2013 534.5L1948.5 535L1951.5 595L1952 938.5L2025.5 938L2025.5 681L2028.5 665L2033.5 651L2042.5 634L2064 609.5L2088 594.5L2102 589.5L2118 586.5L2140 586.5L2152 588.5L2165 592.5L2183 602.5L2192.5 611L2202.5 624L2214.5 651L2218.5 668L2221.5 699L2221.5 938L2294.5 938L2294.5 675L2289.5 641L2280.5 611L2269.5 589L2256.5 571L2242 556.5L2227 545.5L2210 536.5L2193 530.5L2169 525.5L2150 524.5ZM2502 524.5L2468 528.5L2437 538.5L2408 554.5L2377.5 581L2355.5 610L2336.5 649L2326.5 685L2321.5 728L2322.5 764L2327.5 795L2336.5 824L2348.5 850L2368.5 879L2389 899.5L2408 913.5L2427 923.5L2449 931.5L2475 936.5L2512 936.5L2539 931.5L2559 924.5L2588 907.5L2609.5 887L2622.5 870L2622.5 936L2615.5 974L2608.5 992L2598.5 1009L2584 1025.5L2571 1035.5L2554 1044.5L2532 1051.5L2514 1054.5L2487 1055.5L2462 1053.5L2431 1047.5L2404 1038.5L2374.5 1024L2356.5 1079L2359 1081.5L2380 1092.5L2412 1103.5L2440 1109.5L2481 1113.5L2527 1111.5L2567 1103.5L2590 1095.5L2610 1085.5L2636 1066.5L2657.5 1043L2667.5 1027L2677.5 1005L2689.5 960L2694.5 915L2695.5 585L2698.5 535L2634 534.5L2630 595.5L2610.5 568L2596 554.5L2580 543.5L2561 534.5L2541 528.5L2502 524.5ZM2912 524.5L2879 527.5L2858 532.5L2823 547.5L2796 566.5L2776.5 586L2761.5 606L2750.5 625L2740.5 648L2734.5 666L2727.5 698L2724.5 726L2724.5 760L2730.5 802L2743.5 841L2754.5 862L2770.5 884L2799 910.5L2814 920.5L2834 930.5L2868 941.5L2890 945.5L2917 947.5L2964 945.5L3008 938.5L3039 929.5L3056.5 922L3044 869.5L3013 880.5L2970 888.5L2916 889.5L2884 883.5L2853 869.5L2827.5 848L2814.5 830L2806.5 814L2798.5 788L2795.5 769L2795 750.5L3077.5 750L3080.5 725L3080.5 705L3075.5 665L3061.5 620L3041.5 585L3014 556.5L2998 545.5L2982 537.5L2948 527.5L2912 524.5ZM3636 524.5L3618 526.5L3600 531.5L3585 538.5L3569 549.5L3555.5 562L3543.5 577L3532.5 596L3526 613.5L3522.5 613L3520.5 535L3455.5 535L3459.5 626L3460 938.5L3532.5 938L3532.5 706L3537.5 677L3543.5 659L3557.5 634L3570 619.5L3584 608.5L3602 599.5L3618 595.5L3642 594.5L3658.5 597L3658.5 528L3636 524.5ZM3827 524.5L3789 528.5L3759 537.5L3740 546.5L3716 562.5L3693.5 584L3675.5 608L3661.5 634L3649.5 667L3642.5 700L3639.5 731L3640.5 769L3645.5 801L3656.5 836L3670.5 863L3687.5 886L3709 906.5L3731 921.5L3754 932.5L3783 941.5L3815 946.5L3845 947.5L3896 943.5L3935 935.5L3971 922.5L3971.5 917L3959 869.5L3921 882.5L3873 889.5L3831 889.5L3816 887.5L3796 882.5L3770 870.5L3745.5 851L3733.5 836L3723.5 818L3716.5 799L3712.5 781L3710.5 751L3992 750.5L3994 743.5L3995.5 775L3999.5 799L4007.5 827L4018.5 852L4034.5 877L4047.5 892L4070 911.5L4091 924.5L4111 933.5L4142 942.5L4169 946.5L4200 947.5L4234 945.5L4273 939.5L4293 934.5L4326.5 922L4314 869.5L4271 883.5L4228 889.5L4185 889.5L4171 887.5L4145 880.5L4126 871.5L4109 859.5L4095.5 846L4085.5 832L4071.5 801L4065.5 771L4065 750.5L4346 750.5L4349.5 735L4349.5 695L4346.5 672L4340.5 646L4329.5 616L4317.5 594L4300.5 572L4285 557.5L4266 544.5L4244 534.5L4223 528.5L4203 525.5L4181 524.5L4149 527.5L4128 532.5L4100 543.5L4080 555.5L4058 573.5L4040.5 593L4027.5 612L4015.5 635L4004.5 665L3999.5 685L3996 710.5L3992.5 674L3981.5 632L3969.5 605L3950.5 577L3924 552.5L3897 537.5L3863 527.5L3827 524.5ZM5269 524.5L5225 529.5L5183 543.5L5154 560.5L5123.5 588L5100.5 620L5086.5 650L5076.5 685L5071.5 726L5072.5 766L5080.5 809L5090.5 837L5102.5 860L5113.5 876L5143 906.5L5173 926.5L5205 939.5L5246 947.5L5284 947.5L5326 939.5L5363 924.5L5398 900.5L5424.5 872L5442.5 843L5457.5 803L5465.5 754L5465.5 713L5461.5 683L5456.5 662L5441.5 624L5429.5 604L5415.5 586L5389 561.5L5355 541.5L5330 532.5L5308 527.5L5269 524.5ZM6034 524.5L5996 527.5L5967 533.5L5932 545.5L5907 558.5L5904.5 561L5904.5 564L5919.5 608L5921 609.5L5936 600.5L5957 591.5L5997 581.5L6034 579.5L6066 585.5L6077 590.5L6090 599.5L6105.5 619L6112.5 636L6115.5 650L6116.5 681L6056 683.5L5999 693.5L5959 707.5L5935 720.5L5920 731.5L5902.5 749L5892.5 763L5885.5 776L5878.5 796L5874.5 821L5874.5 841L5881.5 873L5893.5 897L5906.5 913L5917 922.5L5940 936.5L5968 945.5L5981 947.5L6015 947.5L6054 938.5L6087 921.5L6101 910.5L6122 887.5L6124.5 893L6130 938.5L6196 938.5L6191.5 905L6189.5 869L6189.5 672L6185.5 640L6175.5 606L6166.5 588L6154.5 571L6140 556.5L6121 543.5L6098 533.5L6079 528.5L6034 524.5ZM2893 578.5L2879 581.5L2859 589.5L2843 600.5L2829.5 614L2818.5 629L2808.5 648L2799.5 674L2795.5 696L3009 696.5L3008.5 676L3003.5 651L2996.5 632L2983.5 611L2966 594.5L2945 583.5L2923 578.5L2893 578.5ZM3809 578.5L3785 584.5L3771 591.5L3757 601.5L3745.5 613L3732.5 631L3722.5 651L3713.5 679L3711.5 696L3924 696.5L3923.5 674L3918.5 650L3907.5 624L3893.5 605L3875 590.5L3854 581.5L3838 578.5L3809 578.5ZM4163 578.5L4145 582.5L4127 590.5L4114 599.5L4097.5 616L4086.5 632L4076.5 652L4069.5 673L4065.5 696L4278 696.5L4277.5 671L4271.5 645L4261.5 623L4251.5 609L4237 595.5L4217 584.5L4193 578.5L4163 578.5ZM5260 580.5L5237 584.5L5225 588.5L5208 597.5L5185.5 617L5171.5 636L5162.5 653L5151.5 686L5146.5 718L5146.5 756L5150.5 783L5157.5 807L5166.5 827L5182.5 851L5204 871.5L5229 885.5L5251 891.5L5276 892.5L5295 889.5L5323 877.5L5336 868.5L5353.5 851L5362.5 839L5377.5 810L5385.5 784L5389.5 760L5390.5 724L5387.5 698L5378.5 664L5367.5 640L5351.5 617L5331 598.5L5308 586.5L5288 581.5L5260 580.5ZM2501 583.5L2474 590.5L2460 597.5L2447 606.5L2430.5 623L2420.5 637L2409.5 659L2401.5 684L2396.5 717L2396.5 753L2401.5 785L2411.5 814L2423.5 835L2441 854.5L2463 869.5L2481 876.5L2502 880.5L2526 880.5L2546 876.5L2559 871.5L2580 858.5L2592.5 847L2603.5 833L2614.5 812L2619.5 796L2622.5 772L2621.5 674L2615.5 652L2606.5 634L2597.5 621L2582 605.5L2569 596.5L2549 587.5L2530 583.5L2501 583.5ZM5680 583.5L5654 587.5L5628 598.5L5610 611.5L5598.5 623L5585.5 641L5575.5 662L5568.5 691L5568.5 789L5574.5 814L5583.5 833L5595.5 850L5614 867.5L5632 878.5L5651 885.5L5666 888.5L5697 888.5L5725 881.5L5741 873.5L5757 861.5L5773.5 843L5788.5 816L5795.5 796L5801.5 766L5803.5 729L5800.5 697L5795.5 675L5780.5 640L5769.5 624L5752 606.5L5731 593.5L5706 585.5L5680 583.5ZM1789 732.5L1745 737.5L1715 745.5L1686 760.5L1667.5 779L1659.5 794L1656.5 804L1654.5 821L1655.5 837L1659.5 853L1664.5 863L1679 879.5L1695 888.5L1710 892.5L1729 893.5L1746 891.5L1763 886.5L1779 878.5L1796 865.5L1807.5 852L1818.5 833L1824.5 813L1825.5 733L1789 732.5ZM6083 732.5L6044 736.5L6006 746.5L5978 761.5L5961.5 778L5954.5 790L5949.5 806L5948.5 835L5951.5 849L5956.5 861L5963.5 871L5975 881.5L5991 889.5L6003 892.5L6023 893.5L6044 890.5L6059 885.5L6077 875.5L6086 868.5L6102.5 850L6113.5 829L6118.5 809L6118.5 733L6083 732.5Z"></path></g></svg>